<svg xmlns="http://www.w3.org/2000/svg" viewBox="0 0 339.54 339.54"><defs><style>.cls-1{fill:none;stroke:#fff;stroke-linecap:round;stroke-linejoin:round;stroke-width:2.62px;}</style></defs><title>arrows-center</title><g id="Layer_2" data-name="Layer 2"><g id="Capa_1" data-name="Capa 1"><polyline class="cls-1" points="281.44 175.39 272.15 172.93 274.62 163.64"/><path class="cls-1" d="M338.23,106.22a139,139,0,0,1-28,39.35,143.52,143.52,0,0,1-38.13,27.36"/><polyline class="cls-1" points="58.1 164.15 67.39 166.61 64.92 175.9"/><path class="cls-1" d="M1.31,233.32a138.68,138.68,0,0,1,28-39.35,143.36,143.36,0,0,1,38.13-27.36"/><polyline class="cls-1" points="164.15 281.44 166.61 272.15 175.9 274.62"/><path class="cls-1" d="M233.32,338.23a138.87,138.87,0,0,1-39.35-28,143.52,143.52,0,0,1-27.36-38.13"/><polyline class="cls-1" points="175.39 58.1 172.93 67.39 163.64 64.92"/><path class="cls-1" d="M106.22,1.31a138.82,138.82,0,0,1,39.35,28,143.36,143.36,0,0,1,27.36,38.13"/></g></g></svg>