<svg xmlns="http://www.w3.org/2000/svg" viewBox="0 0 102.42 102.42"><defs><style>.cls-1{fill:#b5315f;}.cls-2{fill:#fff;}</style></defs><title>Asset 6</title><g id="Layer_2" data-name="Layer 2"><g id="Capa_1" data-name="Capa 1"><path class="cls-1" d="M51.21,0A51.21,51.21,0,1,1,0,51.21,51.21,51.21,0,0,1,51.21,0Z"/><path class="cls-2" d="M21.47,64.07a1.42,1.42,0,0,1-1-.42,1.4,1.4,0,0,1-.42-1V42.14a1.43,1.43,0,0,1,1.46-1.46,1.4,1.4,0,0,1,1,.42,1.42,1.42,0,0,1,.42,1V62.62a1.43,1.43,0,0,1-1.45,1.45ZM30,55H25.58a1.43,1.43,0,0,1-1.46-1.46,1.4,1.4,0,0,1,.42-1,1.42,1.42,0,0,1,1-.42H30A6.52,6.52,0,0,0,34,51a3.57,3.57,0,0,0,1.4-3A3.91,3.91,0,0,0,34,44.73a6.11,6.11,0,0,0-4-1.17H25.58a1.42,1.42,0,0,1-1-.42,1.4,1.4,0,0,1-.42-1,1.43,1.43,0,0,1,1.46-1.46H30a8.72,8.72,0,0,1,6.18,2.13,6.69,6.69,0,0,1,1.59,2.3A7.61,7.61,0,0,1,38.33,48a7.45,7.45,0,0,1-.55,2.78A6.2,6.2,0,0,1,36.09,53,9.13,9.13,0,0,1,30,55Zm7.18,9.29A1.45,1.45,0,0,1,36,63.69L31.73,58a1.34,1.34,0,0,1-.31-1.08A1.37,1.37,0,0,1,32,56a1.46,1.46,0,0,1,1.09-.27,1.35,1.35,0,0,1,1,.56l4.31,5.67a1.43,1.43,0,0,1-.26,2A1.45,1.45,0,0,1,37.19,64.24Z"/><path class="cls-2" d="M45.83,64.07a1.43,1.43,0,0,1-1.45-1.45V42.14a1.42,1.42,0,0,1,.42-1,1.4,1.4,0,0,1,1-.42,1.43,1.43,0,0,1,1.46,1.46V62.62a1.4,1.4,0,0,1-.42,1A1.42,1.42,0,0,1,45.83,64.07ZM59.94,43.59h-10a1.43,1.43,0,0,1-1.45-1.45,1.42,1.42,0,0,1,.42-1,1.4,1.4,0,0,1,1-.42h10a1.43,1.43,0,0,1,1,.42,1.42,1.42,0,0,1,.42,1,1.4,1.4,0,0,1-.42,1A1.43,1.43,0,0,1,59.94,43.59Zm-1.07,9.94H49.94a1.38,1.38,0,0,1-1-.44,1.42,1.42,0,0,1-.42-1,1.45,1.45,0,0,1,1.45-1.46h8.93a1.43,1.43,0,0,1,1,.43,1.4,1.4,0,0,1,.42,1,1.42,1.42,0,0,1-.42,1A1.4,1.4,0,0,1,58.87,53.53Zm1.07,10.54h-10a1.43,1.43,0,0,1-1.45-1.45,1.42,1.42,0,0,1,.42-1,1.38,1.38,0,0,1,1-.44h10a1.47,1.47,0,0,1,1.46,1.46,1.4,1.4,0,0,1-.42,1A1.43,1.43,0,0,1,59.94,64.07Z"/><path class="cls-2" d="M67.67,64.07a1.43,1.43,0,0,1-1.45-1.45V42.14a1.42,1.42,0,0,1,.42-1,1.4,1.4,0,0,1,1-.42,1.43,1.43,0,0,1,1.46,1.46V62.62a1.4,1.4,0,0,1-.42,1A1.42,1.42,0,0,1,67.67,64.07Zm7.35,0H71.78a1.43,1.43,0,0,1-1.45-1.45,1.42,1.42,0,0,1,.42-1,1.38,1.38,0,0,1,1-.44H75a9.58,9.58,0,0,0,3.07-.5,8,8,0,0,0,2.75-1.54,7.75,7.75,0,0,0,2-2.62,8.58,8.58,0,0,0,.76-3.78,9.6,9.6,0,0,0-.74-3.84,9.12,9.12,0,0,0-2-2.88,8.53,8.53,0,0,0-2.75-1.79A8.38,8.38,0,0,0,75,43.59H71.78a1.43,1.43,0,0,1-1.45-1.45,1.42,1.42,0,0,1,.42-1,1.4,1.4,0,0,1,1-.42H75a11.19,11.19,0,0,1,4.37.88,12.2,12.2,0,0,1,2,1.06A10.07,10.07,0,0,1,83,44.05,11.42,11.42,0,0,1,85.61,48a12.63,12.63,0,0,1,.89,4.76,11.55,11.55,0,0,1-1,4.79A10.09,10.09,0,0,1,83,61.1a11.1,11.1,0,0,1-3.63,2.22A12.43,12.43,0,0,1,75,64.07Z"/></g></g></svg>