<svg xmlns="http://www.w3.org/2000/svg" viewBox="0 0 102.42 99.76"><defs><style>.cls-1{fill:#d47a33;}.cls-2{fill:#fff;}</style></defs><title>Asset 14</title><g id="Layer_2" data-name="Layer 2"><g id="Capa_1" data-name="Capa 1"><ellipse class="cls-1" cx="51.21" cy="49.88" rx="51.21" ry="49.88"/><path class="cls-2" d="M18.43,61.67a1.48,1.48,0,0,1-1.07-.43,1.4,1.4,0,0,1-.44-1V39.56a1.4,1.4,0,0,1,.44-1,1.47,1.47,0,0,1,1.07-.42,1.49,1.49,0,0,1,1.07.42,1.39,1.39,0,0,1,.43,1V60.2a1.39,1.39,0,0,1-.43,1A1.5,1.5,0,0,1,18.43,61.67ZM33,41H22.68a1.47,1.47,0,0,1-1.07-.42,1.46,1.46,0,0,1,0-2.09,1.47,1.47,0,0,1,1.07-.42H33a1.49,1.49,0,0,1,1.07.42,1.46,1.46,0,0,1,0,2.09A1.49,1.49,0,0,1,33,41Zm-1.1,10H22.68a1.5,1.5,0,0,1-1.51-1.47,1.4,1.4,0,0,1,.44-1,1.48,1.48,0,0,1,1.07-.43h9.24a1.5,1.5,0,0,1,1.07.43,1.39,1.39,0,0,1,.43,1,1.43,1.43,0,0,1-.43,1A1.46,1.46,0,0,1,31.92,51ZM33,61.67H22.68a1.48,1.48,0,0,1-1.07-.43,1.4,1.4,0,0,1-.44-1,1.5,1.5,0,0,1,1.51-1.47H33a1.46,1.46,0,0,1,1.07.44,1.44,1.44,0,0,1,.44,1,1.4,1.4,0,0,1-.44,1A1.5,1.5,0,0,1,33,61.67Z"/><path class="cls-2" d="M41,61.67A1.48,1.48,0,0,1,40,61.24a1.4,1.4,0,0,1-.44-1V39.56a1.4,1.4,0,0,1,.44-1A1.47,1.47,0,0,1,41,38.1a1.49,1.49,0,0,1,1.07.42,1.4,1.4,0,0,1,.44,1V60.2a1.4,1.4,0,0,1-.44,1A1.5,1.5,0,0,1,41,61.67Zm7.6,0H45.27a1.48,1.48,0,0,1-1.07-.43,1.4,1.4,0,0,1-.44-1,1.5,1.5,0,0,1,1.51-1.47h3.35a10.44,10.44,0,0,0,3.17-.5,8.78,8.78,0,0,0,2.85-1.55A8,8,0,0,0,56.7,54a8.65,8.65,0,0,0,.78-3.82,9.21,9.21,0,0,0-.77-3.86,8.93,8.93,0,0,0-2-2.9,8.81,8.81,0,0,0-2.84-1.81A9,9,0,0,0,48.62,41H45.27a1.47,1.47,0,0,1-1.07-.42,1.46,1.46,0,0,1,0-2.09,1.47,1.47,0,0,1,1.07-.42h3.35a11.84,11.84,0,0,1,4.51.88,13.06,13.06,0,0,1,2,1.07,11,11,0,0,1,1.76,1.44,11.78,11.78,0,0,1,2.66,3.94,12.61,12.61,0,0,1,.92,4.79,11.44,11.44,0,0,1-1,4.83,10.11,10.11,0,0,1-2.64,3.62A11.46,11.46,0,0,1,53.1,60.9,13.06,13.06,0,0,1,48.62,61.67Z"/><path class="cls-2" d="M73.58,58.41a1.43,1.43,0,0,1,1.06.57A1.56,1.56,0,0,1,75,60.13a1.45,1.45,0,0,1-.51,1,1.6,1.6,0,0,1-1.06.39.53.53,0,0,1-.2,0,8,8,0,0,1-3-1,8.84,8.84,0,0,1-2.39-2,9.61,9.61,0,0,1-1.57-2.85,10.3,10.3,0,0,1-.57-3.44V39.66a1.48,1.48,0,0,1,.47-1.11,1.57,1.57,0,0,1,1.13-.45,1.55,1.55,0,0,1,1.58,1.56V52.15a7.26,7.26,0,0,0,.35,2.31,6.19,6.19,0,0,0,1,1.91,5.52,5.52,0,0,0,1.52,1.37A4.84,4.84,0,0,0,73.58,58.41ZM83.89,38.1a1.58,1.58,0,0,1,1.14.45,1.52,1.52,0,0,1,.47,1.11V52.15a10.56,10.56,0,0,1-.56,3.44,9.14,9.14,0,0,1-1.55,2.85,8.8,8.8,0,0,1-2.38,2,7.75,7.75,0,0,1-3,1,.53.53,0,0,1-.2,0,1.62,1.62,0,0,1-1.07-.39,1.49,1.49,0,0,1-.54-1A1.53,1.53,0,0,1,76.53,59a1.45,1.45,0,0,1,1.07-.57,5,5,0,0,0,3.39-2,6,6,0,0,0,1-1.92,8.05,8.05,0,0,0,.33-2.33V39.66a1.52,1.52,0,0,1,.47-1.11A1.58,1.58,0,0,1,83.89,38.1Z"/></g></g></svg>