<svg xmlns="http://www.w3.org/2000/svg" viewBox="0 0 44.14 25.9"><defs><style>.cls-1{fill:#cceffc;}</style></defs><title>Asset 70</title><g id="Layer_2" data-name="Layer 2"><g id="main"><path class="cls-1" d="M1.61,25.9a1.56,1.56,0,0,1-1.15-.47A1.56,1.56,0,0,1,0,24.29V1.61A1.56,1.56,0,0,1,.47.47,1.56,1.56,0,0,1,1.61,0,1.56,1.56,0,0,1,2.76.47a1.56,1.56,0,0,1,.47,1.15V24.29a1.56,1.56,0,0,1-.47,1.15A1.56,1.56,0,0,1,1.61,25.9Zm13.79,0H6.13a1.59,1.59,0,0,1-1.61-1.61A1.58,1.58,0,0,1,5,23.16a1.53,1.53,0,0,1,1.15-.48h9.28a1.53,1.53,0,0,1,1.15.48A1.58,1.58,0,0,1,17,24.29a1.59,1.59,0,0,1-1.61,1.61Z"/><path class="cls-1" d="M23.29,25.9a1.59,1.59,0,0,1-1.61-1.61V1.61A1.56,1.56,0,0,1,22.14.47a1.65,1.65,0,0,1,2.29,0,1.56,1.56,0,0,1,.47,1.15V24.29a1.59,1.59,0,0,1-1.61,1.61Zm8.13,0H27.84a1.59,1.59,0,0,1-1.61-1.61,1.57,1.57,0,0,1,.47-1.13,1.53,1.53,0,0,1,1.15-.48h3.58a10.8,10.8,0,0,0,3.4-.56,9.11,9.11,0,0,0,3-1.7,8.59,8.59,0,0,0,2.2-2.9,9.62,9.62,0,0,0,.84-4.19,10.48,10.48,0,0,0-.82-4.25,10,10,0,0,0-2.17-3.19,9.38,9.38,0,0,0-6.5-2.67H27.84a1.56,1.56,0,0,1-1.15-.47,1.56,1.56,0,0,1-.47-1.15A1.56,1.56,0,0,1,26.69.47,1.56,1.56,0,0,1,27.84,0h3.58a12.49,12.49,0,0,1,4.84,1,14.12,14.12,0,0,1,2.17,1.18,11.29,11.29,0,0,1,1.88,1.58,12.74,12.74,0,0,1,2.85,4.34,14.1,14.1,0,0,1,1,5.27,12.83,12.83,0,0,1-1.07,5.3,11.14,11.14,0,0,1-2.83,4,12.16,12.16,0,0,1-4,2.45A13.63,13.63,0,0,1,31.42,25.9Z"/></g></g></svg>