<svg xmlns="http://www.w3.org/2000/svg" viewBox="0 0 223.18 223.18"><defs><style>.cls-1{fill:#009adb;}.cls-2{fill:#fff;}</style></defs><title>Asset 12</title><g id="Layer_2" data-name="Layer 2"><g id="Capa_1" data-name="Capa 1"><circle id="_Path_" data-name="&lt;Path&gt;" class="cls-1" cx="111.59" cy="111.59" r="111.59"/><path class="cls-2" d="M140.58,96.34a19.84,19.84,0,0,1-19.82-19.83,1.55,1.55,0,1,1,3.1,0,16.73,16.73,0,0,0,33.45,0,1.55,1.55,0,0,1,3.1,0A19.85,19.85,0,0,1,140.58,96.34Z"/><path class="cls-2" d="M158.86,72.13a1.54,1.54,0,0,1-1.55-1.55,16.73,16.73,0,0,0-33.45,0,1.55,1.55,0,0,1-3.1,0,19.83,19.83,0,1,1,39.65,0A1.54,1.54,0,0,1,158.86,72.13Z"/><path class="cls-2" d="M140.42,95.16a1.55,1.55,0,0,1-1.56-1.55V90.35a1.56,1.56,0,0,1,3.11,0v3.26A1.55,1.55,0,0,1,140.42,95.16Z"/><path class="cls-2" d="M147.11,94.6a1.54,1.54,0,0,1-1.55-1.55v-8c0-1.7-.51-4-4.94-4-2.44,0-5.35.69-5.35,4v8a1.56,1.56,0,0,1-3.11,0v-8c0-4.36,3.24-7.07,8.46-7.07s8,2.58,8,7.07v8A1.54,1.54,0,0,1,147.11,94.6Z"/><path class="cls-2" d="M139.91,61.47a9.84,9.84,0,0,1-6.41-2.07,1.55,1.55,0,0,1,2.08-2.3c.18.14,3.57,2.93,10.22-.25a1.56,1.56,0,0,1,1.34,2.81A16.84,16.84,0,0,1,139.91,61.47Z"/><path class="cls-2" d="M97,132.43H60.45a1.56,1.56,0,0,1,0-3.11H97a1.56,1.56,0,0,1,0,3.11Z"/><path class="cls-2" d="M78.7,157.57a19.85,19.85,0,0,1-19.83-19.83,1.55,1.55,0,1,1,3.1,0,16.73,16.73,0,1,0,33.45,0,1.55,1.55,0,1,1,3.1,0A19.84,19.84,0,0,1,78.7,157.57Z"/><path class="cls-2" d="M103.25,174.64a1.56,1.56,0,0,1-1.56-1.56V135a22.78,22.78,0,0,0-45.55,0v38.12a1.55,1.55,0,1,1-3.1,0V135a25.88,25.88,0,1,1,51.76,0v38.12A1.56,1.56,0,0,1,103.25,174.64Z"/><path class="cls-2" d="M78.7,148.45a6.27,6.27,0,0,1-6.27-6.27,1.56,1.56,0,0,1,3.11,0,3.16,3.16,0,1,0,6.31,0,1.56,1.56,0,0,1,3.11,0A6.27,6.27,0,0,1,78.7,148.45Z"/><path class="cls-2" d="M72.07,78.68a6.6,6.6,0,1,1,6.6-6.6A6.6,6.6,0,0,1,72.07,78.68Zm0-10.09a3.49,3.49,0,1,0,3.5,3.49A3.49,3.49,0,0,0,72.07,68.59Z"/><path class="cls-2" d="M86.64,78.68a6.6,6.6,0,1,1,6.59-6.6A6.61,6.61,0,0,1,86.64,78.68Zm0-10.09a3.49,3.49,0,1,0,3.49,3.49A3.5,3.5,0,0,0,86.64,68.59Z"/><path class="cls-2" d="M79.52,97.83A19.84,19.84,0,0,1,59.7,78a1.55,1.55,0,0,1,3.1,0,16.72,16.72,0,1,0,33.44,0,1.56,1.56,0,0,1,3.11,0A19.85,19.85,0,0,1,79.52,97.83Z"/><path class="cls-2" d="M81.25,73.63H78a1.56,1.56,0,0,1,0-3.11h3.26a1.56,1.56,0,1,1,0,3.11Z"/><path class="cls-2" d="M97.79,67.15h-.1C94.31,66.93,89,62.48,86.8,57.9c-8.63,7.71-25.91,6.42-26.7,6.36a1.59,1.59,0,0,1-1.24-.8,1.56,1.56,0,0,1-.2-1.74c3.92-7.47,14.22-12.19,21.9-12.45,3.82-.14,6.78.91,8.38,2.92,7.09,1.58,10.59,6.1,10.41,13.45a1.54,1.54,0,0,1-.51,1.1A1.53,1.53,0,0,1,97.79,67.15Zm-8.63-11.7c.92,3.19,4.5,6.61,7,8C95.85,60.33,94.4,56.94,89.16,55.45Zm-26.51,5.8C68,61.33,81,60.8,86.23,54l.07-.08c-1-1.06-3-1.61-5.64-1.52C74.7,52.57,66.62,56.1,62.65,61.25Z"/><path class="cls-2" d="M79.4,91.05a6.27,6.27,0,0,1-6.26-6.26,1.55,1.55,0,1,1,3.1,0,3.16,3.16,0,0,0,6.32,0,1.55,1.55,0,1,1,3.1,0A6.27,6.27,0,0,1,79.4,91.05Z"/><path class="cls-2" d="M158.86,132.38a1.54,1.54,0,0,1-1.55-1.55,16.73,16.73,0,0,0-33.45,0,1.55,1.55,0,1,1-3.1,0,19.83,19.83,0,1,1,39.65,0A1.54,1.54,0,0,1,158.86,132.38Z"/><path class="cls-2" d="M140.89,156.44a19.85,19.85,0,0,1-19.82-19.83,1.55,1.55,0,1,1,3.1,0,16.72,16.72,0,0,0,33.44,0,1.56,1.56,0,0,1,3.11,0A19.85,19.85,0,0,1,140.89,156.44Z"/><path class="cls-2" d="M140.89,148.45a6.27,6.27,0,0,1-6.26-6.27,1.56,1.56,0,0,1,3.11,0,3.16,3.16,0,1,0,6.31,0,1.55,1.55,0,0,1,3.1,0A6.27,6.27,0,0,1,140.89,148.45Z"/><path class="cls-2" d="M182.54,159.85a1.56,1.56,0,0,1-1.52-1.26c-.57-2.91-.85-5.45-1.09-7.69-.47-4.29-.8-7.38-2.84-10-2.45-3.09-9.42-3.06-11.92-2.79a1.55,1.55,0,1,1-.33-3.08c.43,0,10.68-1.11,14.68,3.94,2.6,3.28,3,6.93,3.5,11.56.24,2.18.5,4.65,1,7.42a1.57,1.57,0,0,1-1.23,1.83A1.53,1.53,0,0,1,182.54,159.85Z"/><path class="cls-2" d="M130.31,132.74a1.55,1.55,0,0,1-.65-3c6.23-2.86,8.26-9.31,8.28-9.37a1.56,1.56,0,0,1,3,.89,19.63,19.63,0,0,1-10,11.3A1.48,1.48,0,0,1,130.31,132.74Z"/><path class="cls-2" d="M150.64,132.74a1.52,1.52,0,0,1-.51-.09,15.4,15.4,0,0,1-8.07-7.08,1.56,1.56,0,0,1,2.79-1.38h0a12.35,12.35,0,0,0,6.31,5.53,1.55,1.55,0,0,1-.52,3Z"/><path class="cls-2" d="M177.72,160.13c-2.18,0-7.26-1.11-7.26-11.47a4.24,4.24,0,0,0-1.2-3.21,7.48,7.48,0,0,0-4.79-1.68,1.55,1.55,0,1,1-.06-3.1c.16,0,4.37,0,7,2.56a7.33,7.33,0,0,1,2.13,5.43c0,3.13.54,8.37,4.15,8.37a1.55,1.55,0,1,1,0,3.1Z"/></g></g></svg>