<svg xmlns="http://www.w3.org/2000/svg" xmlns:xlink="http://www.w3.org/1999/xlink" viewBox="0 0 102.42 99.76"><defs><style>.cls-1{fill:#d47a33;}.cls-2{fill:#fff;}.cls-3{fill:#595a5b;}.cls-4{fill:url(#Degradado_sin_nombre_9);}.cls-5{fill:url(#Degradado_sin_nombre_8);}.cls-6{fill:url(#Degradado_sin_nombre_9-2);}.cls-7,.cls-9{fill:none;stroke-width:0.82px;}.cls-7{stroke:#4b4a4c;}.cls-8{fill:#231f20;opacity:0.23;isolation:isolate;}.cls-9{stroke:#a7aaab;}.cls-10{fill:#6d6e70;}</style><linearGradient id="Degradado_sin_nombre_9" x1="28.88" y1="927.47" x2="53" y2="927.47" gradientTransform="matrix(1, 0, 0, -1, 0, 965.58)" gradientUnits="userSpaceOnUse"><stop offset="0" stop-color="#929496"/><stop offset="0.12" stop-color="#757578"/><stop offset="0.28" stop-color="#585759"/><stop offset="0.44" stop-color="#403e3f"/><stop offset="0.61" stop-color="#302d2e"/><stop offset="0.79" stop-color="#272324"/><stop offset="1" stop-color="#231f20"/></linearGradient><linearGradient id="Degradado_sin_nombre_8" x1="33.58" y1="935.4" x2="43.44" y2="921.32" gradientTransform="matrix(1, 0, 0, -1, 0, 965.58)" gradientUnits="userSpaceOnUse"><stop offset="0" stop-color="#231f20"/><stop offset="1" stop-color="#231f20" stop-opacity="0"/></linearGradient><linearGradient id="Degradado_sin_nombre_9-2" x1="15.66" y1="934.92" x2="59.74" y2="934.92" xlink:href="#Degradado_sin_nombre_9"/></defs><title>Asset 8</title><g id="Layer_2" data-name="Layer 2"><g id="Capa_1" data-name="Capa 1"><ellipse class="cls-1" cx="51.21" cy="49.88" rx="51.21" ry="49.88"/><path class="cls-2" d="M71.86,67.93V47.53c0-4.29-1.84-6.44-5.42-6.44S61,43.24,61,47.53v20.4H50.28V47.53c0-4.29-1.75-6.44-5.33-6.44s-5.42,2.15-5.42,6.44v20.4H28.88V46.37c0-4.47,1.56-7.78,4.78-10.11,2.75-2.06,6.61-3,11.29-3,4.87,0,8.36,1.16,10.65,3.58,1.93-2.42,5.52-3.58,10.75-3.58,4.78,0,8.54,1,11.3,3,3.21,2.33,4.77,5.64,4.77,10.11V68H71.86Z"/><path class="cls-3" d="M29.89,38.41l-1.1,5.37c10.1,3.31,19.65.09,24.7-8.5-7.44-5-14.32.09-23.6,3.13"/><path class="cls-4" d="M29.89,37.07c-.37,2-.64,4-1,6.08,9.64,3.22,19.1.45,24.15-8-6.43-7.25-13.59-1.25-23.14,1.88"/><path class="cls-5" d="M41.37,39.48c-4.41-.89-9.18,1.34-12.49,3.67-2.11-15,7.44-14.67,19.93-10.91C48,35.9,46.6,40.82,44.22,43.78a4.81,4.81,0,0,0-2.85-4.3"/><path class="cls-6" d="M15.66,37.07C31.82,27.58,40.91,25.8,59.74,23.92,37.88,40.73,37.33,37.07,15.66,37.07"/><line class="cls-7" x1="59.74" y1="24.01" x2="42.38" y2="36.26"/><path class="cls-8" d="M39.07,30.54c.19,2-.27-1.88,0,0"/><line class="cls-9" x1="15.66" y1="37.07" x2="42.38" y2="36.26"/><path class="cls-2" d="M17.26,46.12a60,60,0,0,1,.1-9.08c.14-1.52,7.35-3.41,16-5.54,1.61-.4,3-.74,4-1l.12.43c-.95.26-2.35.6-4,1-5.44,1.34-15.57,3.83-15.7,5.16a59.83,59.83,0,0,0-.09,9Z"/><path class="cls-2" d="M18.87,59.43c-1.65-4-3.67-8.5-1.29-14,1.57,5.18,1.29,9.12,1.29,14"/><ellipse class="cls-10" cx="36.78" cy="30.44" rx="0.73" ry="0.36" transform="translate(-7.86 13.51) rotate(-18.84)"/></g></g></svg>