<svg xmlns="http://www.w3.org/2000/svg" viewBox="0 0 1919.93 323.68"><defs><style>.cls-1{fill:#c8d883;}.cls-2{fill:#b5cb59;}.cls-3{fill:#c3e1e4;}</style></defs><title>landscape</title><g id="Layer_2" data-name="Layer 2"><g id="Layer_1-2" data-name="Layer 1"><path class="cls-1" d="M.36,61.1a1286.26,1286.26,0,0,0,321-9.42c116.54-18,132.27-36.5,217.13-47.09C718.45-17.86,787,47.91,972.73,75.23c139.18,20.47,158.22-8,402.8-23.55,128.53-8.17,314.68-12.48,544.4,9.42V199.39H.36Z"/><path class="cls-2" d="M.36,111.93a2027.5,2027.5,0,0,0,321-6c116.54-11.4,132.27-23.09,217.13-29.78C718.45,62,787,103.58,972.73,120.86c139.18,13,158.22-5,402.8-14.89,128.53-5.17,314.68-7.89,544.4,6v87.46H.36Z"/><path class="cls-3" d="M0,170.79c3.27-3.28,140,17.65,302.85-14.84C409.79,134.6,604,70.86,839.73,148.89c76.54,25.34,156.66,39.67,236.56,32.51,264.83-23.73,321.75-24.14,480.06,1.33,164.67,26.5,223.84-41.39,363.58,4.48V323.68H.36C.36,298.23,0,170.79,0,170.79Z"/></g></g></svg>