<svg xmlns="http://www.w3.org/2000/svg" viewBox="0 0 590.28 569.68"><defs><style>.cls-1{fill:#99dff9;}.cls-2{fill:#00aeef;}.cls-3{fill:#33bef2;}.cls-4{fill:#66cef5;}.cls-5{fill:#cceffc;}</style></defs><title>login-img-ld</title><g id="Layer_2" data-name="Layer 2"><g id="Main"><path class="cls-1" d="M523.1,32a7.18,7.18,0,0,0-7.18,7.19V89.63a7.19,7.19,0,1,0,14.38,0V39.2A7.19,7.19,0,0,0,523.1,32Z"/><path class="cls-1" d="M523.1,120a7.18,7.18,0,0,0-7.18,7.19v50.43a7.19,7.19,0,0,0,14.38,0V127.22A7.19,7.19,0,0,0,523.1,120Z"/><path class="cls-1" d="M539.38,106.23a7.08,7.08,0,0,0,3.57-1l43.72-25.18a7.19,7.19,0,1,0-7.19-12.46l-43.7,25.18a7.19,7.19,0,0,0,3.6,13.42Z"/><path class="cls-1" d="M503.24,111.58l-43.71,25.18a7.2,7.2,0,1,0,7.19,12.47L510.42,124a7.19,7.19,0,0,0-7.18-12.46Z"/><path class="cls-1" d="M510.42,92.81l-43.7-25.18a7.19,7.19,0,0,0-7.19,12.46l43.71,25.18a7.19,7.19,0,0,0,7.18-12.46Z"/><path class="cls-1" d="M535.78,124l43.7,25.19a7.19,7.19,0,1,0,7.18-12.47L543,111.58A7.19,7.19,0,0,0,535.78,124Z"/><path class="cls-2" d="M7.79,184.58a7.7,7.7,0,0,1-5.45-2.21A7.34,7.34,0,0,1,0,176.79V7.79A7.35,7.35,0,0,1,2.34,2.21,7.7,7.7,0,0,1,7.79,0a7.55,7.55,0,0,1,7.79,7.79v169a7.55,7.55,0,0,1-7.79,7.79Zm108,0H33A7.79,7.79,0,1,1,33,169h82.81a7.7,7.7,0,0,1,5.45,2.21,7.84,7.84,0,0,1,0,11.16A7.7,7.7,0,0,1,115.78,184.58Z"/><path class="cls-2" d="M165.11,184.84a7.55,7.55,0,0,1-7.79-7.79V7.79A7.55,7.55,0,0,1,165.11,0a7.7,7.7,0,0,1,5.45,2.21,7.36,7.36,0,0,1,2.34,5.58V177.05a7.34,7.34,0,0,1-2.34,5.58A7.7,7.7,0,0,1,165.11,184.84Zm58.67-.26H190a7.55,7.55,0,0,1-7.79-7.79,7.68,7.68,0,0,1,2.21-5.45A7.34,7.34,0,0,1,190,169h33.75a79.16,79.16,0,0,0,28.3-5.32,81.16,81.16,0,0,0,25.18-15.19,78.11,78.11,0,0,0,18.17-23.88q7-14,7-31.67a71.22,71.22,0,0,0-6.88-31.54,79.14,79.14,0,0,0-18-24.27,82.4,82.4,0,0,0-25.31-15.71,77,77,0,0,0-28.43-5.58H190A7.55,7.55,0,0,1,182.24,8,7.55,7.55,0,0,1,190,.26h33.75a93.45,93.45,0,0,1,34.66,6.62,95.93,95.93,0,0,1,30,18.82,89.24,89.24,0,0,1,22.07,30.5A90.93,90.93,0,0,1,318,92.94a87.82,87.82,0,0,1-7.66,36.47,93.2,93.2,0,0,1-21.94,30.24,96.33,96.33,0,0,1-30,18.43A95.07,95.07,0,0,1,223.78,184.58Z"/><path class="cls-2" d="M582.93,260.74H7.35a7.35,7.35,0,1,1,0-14.7H582.93a7.27,7.27,0,0,1,5.14,2.08,7.39,7.39,0,0,1,0,10.53A7.27,7.27,0,0,1,582.93,260.74Z"/><path class="cls-3" d="M522.93,338H7.35a7.35,7.35,0,1,1,0-14.7H522.93a7.27,7.27,0,0,1,5.14,2.08,7.39,7.39,0,0,1,0,10.53A7.27,7.27,0,0,1,522.93,338Z"/><path class="cls-4" d="M562.93,415.21H7.35a7.35,7.35,0,1,1,0-14.7H562.93a7.27,7.27,0,0,1,5.14,2.08,7.39,7.39,0,0,1,0,10.53A7.27,7.27,0,0,1,562.93,415.21Z"/><path class="cls-1" d="M482.93,492.45H7.35a7.35,7.35,0,1,1,0-14.7H482.93a7.27,7.27,0,0,1,5.14,2.08,7.39,7.39,0,0,1,0,10.53A7.27,7.27,0,0,1,482.93,492.45Z"/><path class="cls-5" d="M532.93,569.68H7.35a7.35,7.35,0,1,1,0-14.7H532.93a7.27,7.27,0,0,1,5.14,2.08,7.39,7.39,0,0,1,0,10.53A7.27,7.27,0,0,1,532.93,569.68Z"/></g></g></svg>