<svg xmlns="http://www.w3.org/2000/svg" viewBox="0 0 24 24"><defs><style>.cls-1{fill:#333;}.cls-2{fill:#fff;}</style></defs><title>login-help</title><g id="Layer_2" data-name="Layer 2"><g id="Main"><circle class="cls-1" cx="12" cy="12" r="12"/><path class="cls-2" d="M10.83,14.67v-1a2.38,2.38,0,0,1,1-2.11l1.39-1.4A1.62,1.62,0,0,0,13.64,9,1.54,1.54,0,0,0,12,7.42a1.83,1.83,0,0,0-1.8,1.76L7.92,9a3.94,3.94,0,0,1,4.2-3.64c2.14,0,3.8,1.24,3.8,3.51,0,1.57-.92,2.32-2,3.31-.67.63-1,.86-1,1.8v.68Zm1.08,1.1a1.41,1.41,0,0,1,1.44,1.37,1.44,1.44,0,1,1-1.44-1.37Z"/></g></g></svg>