<svg xmlns="http://www.w3.org/2000/svg" viewBox="0 0 164.2 40.58"><defs><style>.cls-1{fill:#fff;}</style></defs><title>logo-utec</title><g id="Layer_2" data-name="Layer 2"><g id="Layer_1-2" data-name="Layer 1"><path class="cls-1" d="M91.79,10.81a2.12,2.12,0,0,0-2.13,2.12V35.12a2.13,2.13,0,1,0,4.25,0V12.93A2.12,2.12,0,0,0,91.79,10.81Z"/><path class="cls-1" d="M102.82,4.86H80.75a2.15,2.15,0,0,0,0,4.29h22.07a2.15,2.15,0,0,0,0-4.29Z"/><path class="cls-1" d="M129.44,4.86H115.83a2.15,2.15,0,0,0,0,4.29h13.61a2.15,2.15,0,0,0,0-4.29Z"/><path class="cls-1" d="M109.92,4.88A2.12,2.12,0,0,0,107.79,7V35.12a2.13,2.13,0,1,0,4.25,0V7A2.12,2.12,0,0,0,109.92,4.88Z"/><path class="cls-1" d="M150.92,4.21c-8.31,0-15.56,6-16.52,13.69a2.13,2.13,0,0,0,1.84,2.38h.27a2.13,2.13,0,0,0,2.11-1.86c.69-5.59,6.1-10,12.3-10a12.61,12.61,0,0,1,9.55,4.38,2.13,2.13,0,0,0,3.22-2.78A16.85,16.85,0,0,0,150.92,4.21Z"/><path class="cls-1" d="M59.93,32.59c-3.68-.46-6.34-4.05-6.34-8.55V7a2.13,2.13,0,0,0-4.25,0V24c0,6.67,4.23,12,10.06,12.76l.26,0a2.12,2.12,0,0,0,.27-4.23Z"/><path class="cls-1" d="M37.75,12.63a1.7,1.7,0,0,0-1.7,1.7V26.25a1.7,1.7,0,1,0,3.4,0V14.33A1.7,1.7,0,0,0,37.75,12.63Z"/><path class="cls-1" d="M1.7,28a1.7,1.7,0,0,0,1.7-1.7V14.33a1.7,1.7,0,0,0-3.4,0V26.25A1.7,1.7,0,0,0,1.7,28Z"/><path class="cls-1" d="M34.76,6.2,24.43.23a1.7,1.7,0,1,0-1.7,2.94l10.33,6a1.7,1.7,0,0,0,2.33-.62A1.71,1.71,0,0,0,34.76,6.2Z"/><path class="cls-1" d="M16.72,37.41l-10.33-6a1.7,1.7,0,0,0-1.7,2.95l10.33,6a1.62,1.62,0,0,0,.85.23,1.7,1.7,0,0,0,.85-3.17Z"/><path class="cls-1" d="M5.54,9.37a1.72,1.72,0,0,0,.85-.23l10.33-6A1.7,1.7,0,1,0,15,.23L4.69,6.2a1.7,1.7,0,0,0,.85,3.17Z"/><path class="cls-1" d="M33.06,31.44l-10.33,6a1.7,1.7,0,0,0,.86,3.17,1.61,1.61,0,0,0,.84-.23l10.33-6a1.7,1.7,0,1,0-1.7-2.95Z"/><path class="cls-1" d="M19.73,2.22A1.69,1.69,0,0,0,18,3.92V15.85a1.7,1.7,0,0,0,3.4,0V3.92A1.7,1.7,0,0,0,19.73,2.22Z"/><path class="cls-1" d="M19.73,23a1.7,1.7,0,0,0-1.7,1.7V36.66a1.7,1.7,0,0,0,3.4,0V24.73A1.7,1.7,0,0,0,19.73,23Z"/><path class="cls-1" d="M23.58,19.77a1.61,1.61,0,0,0,.84-.23l10.34-5.95a1.7,1.7,0,1,0-1.7-2.95l-10.33,6a1.7,1.7,0,0,0,.85,3.17Z"/><path class="cls-1" d="M15,21,4.69,27a1.71,1.71,0,0,0,.85,3.18,1.72,1.72,0,0,0,.85-.23l10.34-6A1.7,1.7,0,1,0,15,21Z"/><path class="cls-1" d="M16.73,16.6l-10.34-6a1.7,1.7,0,0,0-1.7,2.95L15,19.54a1.64,1.64,0,0,0,.84.23,1.7,1.7,0,0,0,.86-3.17Z"/><path class="cls-1" d="M22.73,24l10.33,6a1.75,1.75,0,0,0,.85.23A1.7,1.7,0,0,0,34.76,27L24.42,21A1.7,1.7,0,1,0,22.73,24Z"/><path class="cls-1" d="M73.66,4.88A2.12,2.12,0,0,0,71.53,7V24c0,4.57-2.57,8.08-6.26,8.55a2.12,2.12,0,0,0,.26,4.23l.27,0c5.78-.72,10-6.09,10-12.76V7A2.12,2.12,0,0,0,73.66,4.88Z"/><path class="cls-1" d="M150.92,38c-8.31,0-15.56-6-16.52-13.69a2.12,2.12,0,0,1,1.84-2.38l.27,0a2.13,2.13,0,0,1,2.11,1.87c.69,5.59,6.1,10,12.3,10a12.61,12.61,0,0,0,9.55-4.38,2.13,2.13,0,0,1,3.22,2.78A16.88,16.88,0,0,1,150.92,38Z"/><path class="cls-1" d="M129.44,33H115.83a2.14,2.14,0,1,0,0,4.28h13.61a2.14,2.14,0,1,0,0-4.28Z"/><path class="cls-1" d="M126,18.56h-10.2a2.15,2.15,0,0,0,0,4.29H126a2.15,2.15,0,0,0,0-4.29Z"/></g></g></svg>