<?xml version="1.0" encoding="utf-8"?>
<!-- Generator: Adobe Illustrator 21.0.2, SVG Export Plug-In . SVG Version: 6.00 Build 0)  -->
<svg version="1.1" id="Layer_1" xmlns="http://www.w3.org/2000/svg" xmlns:xlink="http://www.w3.org/1999/xlink" x="0px" y="0px"
	 viewBox="0 0 171.4 93" style="enable-background:new 0 0 171.4 93;" xml:space="preserve">
<style type="text/css">
	.st0{enable-background:new    ;}
	.st1{fill:#E6E6E6;}
	.st2{fill:#B3B3B3;}
</style>
<title>logo-utec-ld</title>
<g id="Layer_2">
	<g id="Main">
		<g class="st0">
			<path class="st1" d="M7.6,44.1c-0.6,0-1.2-0.2-1.6-0.7c-0.4-0.4-0.7-1-0.7-1.6V9.3c0-0.6,0.2-1.2,0.7-1.6C6.4,7.2,7,7,7.6,7
				s1.2,0.2,1.6,0.7c0.4,0.4,0.7,1,0.7,1.6v32.5c0,0.7-0.2,1.2-0.7,1.6C8.8,43.9,8.3,44.1,7.6,44.1z M27.4,44.1H14.1
				c-0.6,0-1.2-0.2-1.6-0.7c-0.4-0.4-0.7-1-0.7-1.6c0-0.6,0.2-1.2,0.7-1.6c0.4-0.5,1-0.7,1.6-0.7h13.3c0.6,0,1.2,0.2,1.6,0.7
				c0.4,0.5,0.7,1,0.7,1.6c0,0.7-0.2,1.2-0.7,1.6C28.6,43.9,28.1,44.1,27.4,44.1z"/>
			<path class="st1" d="M38.7,44.1c-0.7,0-1.2-0.2-1.6-0.7c-0.4-0.4-0.7-1-0.7-1.6V9.3c0-0.6,0.2-1.2,0.7-1.6C37.5,7.2,38,7,38.7,7
				c0.6,0,1.2,0.2,1.6,0.7c0.4,0.4,0.7,1,0.7,1.6v32.5c0,0.7-0.2,1.2-0.7,1.6C39.9,43.9,39.3,44.1,38.7,44.1z M50.3,44.1h-5.1
				c-0.7,0-1.2-0.2-1.6-0.7c-0.4-0.4-0.7-1-0.7-1.6c0-0.6,0.2-1.2,0.7-1.6c0.4-0.5,1-0.7,1.6-0.7h5.1c1.6,0,3.3-0.3,4.9-0.8
				c1.6-0.5,3.1-1.3,4.4-2.4c1.3-1.1,2.4-2.5,3.2-4.2c0.8-1.7,1.2-3.7,1.2-6c0-2.3-0.4-4.3-1.2-6.1c-0.8-1.8-1.8-3.3-3.1-4.6
				c-1.3-1.2-2.7-2.2-4.4-2.8c-1.6-0.6-3.3-1-5-1h-5.1c-0.7,0-1.2-0.2-1.6-0.7c-0.4-0.4-0.7-1-0.7-1.6c0-0.6,0.2-1.2,0.7-1.6
				C44,7.2,44.6,7,45.2,7h5.1c2.4,0,4.7,0.5,6.9,1.4c1.1,0.5,2.1,1,3.1,1.7c1,0.7,1.9,1.4,2.7,2.3c1.8,1.8,3.1,3.8,4.1,6.2
				c0.9,2.4,1.4,4.9,1.4,7.5c0,2.8-0.5,5.3-1.5,7.6c-0.9,2.2-2.3,4.1-4.1,5.7c-1.7,1.5-3.6,2.7-5.7,3.5
				C55.1,43.7,52.8,44.1,50.3,44.1z"/>
		</g>
		<path class="st2" d="M169.5,21.1c-1.1,0-1.9,0.9-1.9,1.9c0,0,0,0,0,0v13.4c0,1.1,0.9,1.9,1.9,1.9c1.1,0,1.9-0.9,1.9-1.9V23.1
			C171.4,22,170.6,21.1,169.5,21.1C169.5,21.1,169.5,21.1,169.5,21.1z"/>
		<path class="st2" d="M128.9,38.4c1.1,0,1.9-0.9,1.9-1.9V23.1c-0.1-1.1-1-1.9-2.1-1.8c-1,0.1-1.7,0.8-1.8,1.8v13.4
			C127,37.5,127.9,38.4,128.9,38.4L128.9,38.4z"/>
		<path class="st2" d="M166.1,13.9l-11.6-6.7c-0.9-0.5-2.1-0.2-2.6,0.7s-0.2,2.1,0.7,2.6l11.6,6.7c0.3,0.2,0.6,0.3,1,0.3
			c1.1,0,1.9-0.8,2-1.9C167.2,14.9,166.8,14.3,166.1,13.9L166.1,13.9z"/>
		<path class="st2" d="M145.8,49l-11.6-6.7c-0.9-0.5-2.1-0.2-2.6,0.7c-0.5,0.9-0.2,2.1,0.7,2.6l0,0l11.6,6.7
			c0.9,0.5,2.1,0.2,2.6-0.7C147.1,50.7,146.8,49.5,145.8,49z"/>
		<path class="st2" d="M133.3,17.5c0.4,0,0.7-0.1,1-0.3l11.6-6.7c0.9-0.5,1.2-1.7,0.7-2.6C146,7,144.9,6.7,144,7.2l0,0l-11.6,6.7
			c-0.9,0.5-1.2,1.7-0.7,2.6C132,17.1,132.6,17.5,133.3,17.5L133.3,17.5z"/>
		<path class="st2" d="M164.2,42.3L152.6,49c-0.9,0.5-1.2,1.7-0.7,2.6c0.5,0.9,1.7,1.2,2.6,0.7l0,0l11.6-6.7
			c0.9-0.5,1.2-1.7,0.7-2.6C166.3,42.1,165.1,41.8,164.2,42.3L164.2,42.3z"/>
		<path class="st2" d="M149.2,9.4c-1.1,0-1.9,0.9-1.9,1.9c0,0,0,0,0,0v13.4c0,1.1,0.9,1.9,1.9,1.9c1.1,0,1.9-0.9,1.9-1.9V11.4
			C151.1,10.3,150.3,9.4,149.2,9.4C149.2,9.4,149.2,9.4,149.2,9.4z"/>
		<path class="st2" d="M149.2,32.8c-1.1,0-1.9,0.9-1.9,1.9v0v13.4c0,1.1,0.9,1.9,1.9,1.9c1.1,0,1.9-0.9,1.9-1.9V34.8
			C151.1,33.7,150.3,32.9,149.2,32.8C149.2,32.8,149.2,32.8,149.2,32.8z"/>
		<path class="st2" d="M153.6,29.2c0.3,0,0.7-0.1,0.9-0.3l11.6-6.7c0.9-0.5,1.2-1.7,0.7-2.6s-1.7-1.2-2.6-0.7l0,0l-11.6,6.7
			c-0.9,0.5-1.2,1.7-0.7,2.6C152.2,28.8,152.9,29.2,153.6,29.2L153.6,29.2z"/>
		<path class="st2" d="M143.9,30.6l-11.6,6.7c-0.9,0.5-1.2,1.7-0.7,2.6s1.7,1.2,2.6,0.7l11.6-6.7c0.9-0.5,1.2-1.7,0.7-2.6
			C146,30.4,144.9,30.1,143.9,30.6z"/>
		<path class="st2" d="M145.9,25.6l-11.6-6.7c-0.9-0.5-2.1-0.2-2.6,0.7s-0.2,2.1,0.7,2.6l0,0l11.6,6.7c0.9,0.5,2.1,0.2,2.6-0.7
			S146.8,26.1,145.9,25.6z"/>
		<path class="st2" d="M152.6,33.9l11.6,6.7c0.9,0.5,2.1,0.2,2.6-0.7s0.2-2.1-0.7-2.6l-11.6-6.7c-0.9-0.5-2.1-0.2-2.6,0.7
			C151.4,32.2,151.7,33.4,152.6,33.9z"/>
		<path class="st2" d="M65.4,55.8H40.6c-1.3,0-2.4,1.1-2.4,2.4c0,1.3,1.1,2.4,2.4,2.4h24.8c1.3,0,2.4-1.1,2.4-2.4
			C67.8,56.9,66.8,55.8,65.4,55.8z"/>
		<path class="st2" d="M95.4,55.8H80.1c-1.3,0-2.4,1.1-2.4,2.4c0,1.3,1.1,2.4,2.4,2.4c0,0,0,0,0,0h15.3c1.3,0,2.4-1.1,2.4-2.4
			C97.8,56.9,96.7,55.8,95.4,55.8z"/>
		<path class="st2" d="M53,62.5c-1.3,0-2.4,1.1-2.4,2.4v25c0,1.3,1.1,2.4,2.4,2.4c1.3,0,2.4-1.1,2.4-2.4c0,0,0,0,0,0v-25
			C55.4,63.5,54.3,62.5,53,62.5z"/>
		<path class="st2" d="M73.4,55.8c-1.3,0-2.4,1-2.4,2.4c0,0,0,0,0,0v31.6c0,1.3,1.1,2.4,2.4,2.4c1.3,0,2.4-1.1,2.4-2.4c0,0,0,0,0,0
			V58.2C75.8,56.9,74.7,55.8,73.4,55.8z"/>
		<path class="st2" d="M119.6,55c-9.4,0-17.6,6.8-18.6,15.5c-0.2,1.3,0.7,2.5,2,2.7h0.3c1.2,0,2.3-0.9,2.4-2.1
			c0.8-6.3,6.9-11.2,13.8-11.2c4.1,0,8.1,1.8,10.8,4.9c0.9,1,2.4,1.1,3.4,0.2c1-0.9,1.1-2.3,0.2-3.3C130.3,57.4,125.1,55,119.6,55z"
			/>
		<path class="st2" d="M17.2,87C13,86.5,10,82.4,10,77.4V58.2c0-1.3-1.1-2.4-2.4-2.4c-1.3,0-2.4,1.1-2.4,2.4c0,0,0,0,0,0v19.2
			c0,7.5,4.8,13.6,11.3,14.4h0.3c1.3-0.1,2.3-1.2,2.2-2.6C19,88.1,18.2,87.2,17.2,87z"/>
		<path class="st2" d="M32.6,55.8c-1.3,0-2.4,1.1-2.4,2.4v19.2c0,5.1-2.9,9.1-7,9.6c-1.3,0.1-2.3,1.3-2.2,2.6
			c0.1,1.3,1.2,2.3,2.5,2.2h0.3C30.3,90.9,35,84.9,35,77.4V58.2C35,56.9,33.9,55.8,32.6,55.8z"/>
		<path class="st2" d="M119.6,93c-9.4,0-17.6-6.8-18.6-15.4c-0.2-1.3,0.7-2.5,2-2.7h0.3c1.2,0,2.2,0.9,2.4,2.1
			c0.8,6.3,6.9,11.2,13.8,11.2c4.1,0,8.1-1.8,10.8-4.9c0.9-1,2.4-1.1,3.4-0.2c1,0.9,1.1,2.3,0.2,3.3C130.3,90.6,125,93,119.6,93z"/>
		<path class="st2" d="M95.4,87.4H80.1c-1.3,0-2.4,1.1-2.4,2.4s1.1,2.4,2.4,2.4c0,0,0,0,0,0h15.3c1.3,0,2.4-1.1,2.4-2.4
			C97.8,88.5,96.7,87.4,95.4,87.4z"/>
		<path class="st2" d="M91.5,71.2H80.1c-1.3,0-2.4,1.1-2.4,2.4s1.1,2.4,2.4,2.4c0,0,0,0,0,0h11.5c1.3,0,2.4-1.1,2.4-2.4
			C93.9,72.3,92.9,71.2,91.5,71.2z"/>
	</g>
</g>
</svg>
