<svg xmlns="http://www.w3.org/2000/svg" viewBox="0 0 366.38 400.83"><defs><style>.cls-1{fill:#b3b3b3;}</style></defs><title>logo-edu-diagonal</title><g id="Layer_2" data-name="Layer 2"><g id="Layer_1-2" data-name="Layer 1"><path class="cls-1" d="M4,91.64a3.92,3.92,0,0,1-2.85-1.1A3.69,3.69,0,0,1,0,87.77V3.87A3.69,3.69,0,0,1,1.12,1.1,3.92,3.92,0,0,1,4,0,4,4,0,0,1,6.75,1.1,3.61,3.61,0,0,1,7.94,3.87v83.9a3.61,3.61,0,0,1-1.19,2.77A4,4,0,0,1,4,91.64ZM64,7.73H16.67a4,4,0,0,1-2.78-1.09A3.62,3.62,0,0,1,12.7,3.87,3.61,3.61,0,0,1,13.89,1.1,4,4,0,0,1,16.67,0H64a4,4,0,0,1,2.78,1.1A3.61,3.61,0,0,1,68,3.87a3.62,3.62,0,0,1-1.19,2.77A4,4,0,0,1,64,7.73ZM57.29,49.88H16.67a4,4,0,0,1-2.78-1.1,3.82,3.82,0,0,1,0-5.54,4,4,0,0,1,2.78-1.1H57.29a3.92,3.92,0,0,1,2.85,1.1,4,4,0,0,1,0,5.54A3.92,3.92,0,0,1,57.29,49.88ZM64,91.64H16.67a4,4,0,0,1-2.78-1.1,3.82,3.82,0,0,1,0-5.54,4,4,0,0,1,2.78-1.1H64A4,4,0,0,1,66.82,85a3.82,3.82,0,0,1,0,5.54A4,4,0,0,1,64,91.64Z"/><path class="cls-1" d="M144.14,246.43a3.88,3.88,0,0,1-2.84-1.1,3.7,3.7,0,0,1-1.13-2.77v-84a3.7,3.7,0,0,1,1.13-2.77,3.88,3.88,0,0,1,2.84-1.1,4,4,0,0,1,2.78,1.1,3.61,3.61,0,0,1,1.19,2.77v84a3.61,3.61,0,0,1-1.19,2.77A4,4,0,0,1,144.14,246.43Zm29.9-.13h-17.2a3.9,3.9,0,0,1-2.84-1.1,3.7,3.7,0,0,1-1.13-2.77,3.91,3.91,0,0,1,4-3.87H174a42.39,42.39,0,0,0,27.26-10.18,38.86,38.86,0,0,0,9.26-11.86,34,34,0,0,0,3.58-15.72,34.59,34.59,0,0,0-3.51-15.66,39.46,39.46,0,0,0-9.2-12,42.16,42.16,0,0,0-12.9-7.8A40.3,40.3,0,0,0,174,162.52h-17.2a3.89,3.89,0,0,1-2.84-1.09,4,4,0,0,1,0-5.55,3.93,3.93,0,0,1,2.84-1.09H174a49.48,49.48,0,0,1,33,12.63,43.73,43.73,0,0,1,15.08,33.38,42.68,42.68,0,0,1-3.9,18.11,46.24,46.24,0,0,1-11.18,15,49.07,49.07,0,0,1-15.28,9.15A49.59,49.59,0,0,1,174,246.3Z"/><path class="cls-1" d="M321.13,400.83h-.66q-14.57-2.19-23.42-12.63A34.53,34.53,0,0,1,290.69,377a38.75,38.75,0,0,1-2.11-12.88V312.16a3.91,3.91,0,0,1,1.12-2.84,3.81,3.81,0,0,1,2.85-1.16,4,4,0,0,1,2.91,1.16,3.82,3.82,0,0,1,1.19,2.84V364.1a30.56,30.56,0,0,0,1.78,10.56,28.35,28.35,0,0,0,5.1,8.77,27.7,27.7,0,0,0,7.94,6.38,29.68,29.68,0,0,0,10.19,3.28,4.08,4.08,0,0,1,2.71,1.55,3.55,3.55,0,0,1,.73,2.84,3.87,3.87,0,0,1-1.39,2.45A4,4,0,0,1,321.13,400.83Zm12.57,0a4,4,0,0,1-2.58-.9,3.82,3.82,0,0,1-1.39-2.45,3.47,3.47,0,0,1,.73-2.84,4.05,4.05,0,0,1,2.71-1.55,29.82,29.82,0,0,0,10.19-3.28,27.79,27.79,0,0,0,7.93-6.38,29.35,29.35,0,0,0,5.17-8.77,29.67,29.67,0,0,0,1.85-10.56V312.16a3.91,3.91,0,0,1,1.12-2.84,3.81,3.81,0,0,1,2.85-1.16,4,4,0,0,1,2.91,1.16,3.82,3.82,0,0,1,1.19,2.84V364.1a38.14,38.14,0,0,1-8.6,24.1,33.72,33.72,0,0,1-10.26,8.38,39.88,39.88,0,0,1-13.16,4.25Z"/></g></g></svg>