<svg xmlns="http://www.w3.org/2000/svg" viewBox="0 0 141.52 99.19"><defs><style>.cls-1{fill:#fff;}</style></defs><title>logo-utec-old</title><g id="Layer_2" data-name="Layer 2"><g id="Capa_1" data-name="Capa 1"><path class="cls-1" d="M40.68,47.3a2,2,0,0,0-2,2V70.6a2,2,0,0,0,4.07,0V49.34a2,2,0,0,0-2-2"/><path class="cls-1" d="M51.26,41.6H30.1a2.06,2.06,0,0,0,0,4.11H51.26a2.06,2.06,0,0,0,0-4.11"/><path class="cls-1" d="M76.76,41.6h-13a2.06,2.06,0,0,0,0,4.11h13a2.06,2.06,0,1,0,0-4.11"/><path class="cls-1" d="M58.05,41.61a2,2,0,0,0-2,2V70.6a2,2,0,0,0,4.07,0V43.65a2,2,0,0,0-2-2"/><path class="cls-1" d="M97.34,41c-8,0-14.9,5.77-15.83,13.13a2,2,0,0,0,1.77,2.27l.26,0a2,2,0,0,0,2-1.79c.67-5.36,5.85-9.55,11.79-9.55a12.08,12.08,0,0,1,9.15,4.19,2,2,0,1,0,3.09-2.66A16.17,16.17,0,0,0,97.34,41"/><path class="cls-1" d="M10.15,68.17C6.63,67.73,4.08,64.28,4.08,60V43.65a2,2,0,1,0-4.08,0V60c0,6.39,4.06,11.53,9.64,12.23l.26,0a2,2,0,0,0,.25-4.06"/><path class="cls-1" d="M139.88,12.1a1.63,1.63,0,0,0-1.62,1.63V25.16a1.63,1.63,0,1,0,3.26,0V13.73a1.63,1.63,0,0,0-1.64-1.63"/><path class="cls-1" d="M105.34,26.79A1.63,1.63,0,0,0,107,25.16V13.73a1.63,1.63,0,1,0-3.26,0V25.16a1.63,1.63,0,0,0,1.63,1.63"/><path class="cls-1" d="M137,5.94,127.12.22A1.63,1.63,0,1,0,125.5,3l9.89,5.72a1.62,1.62,0,0,0,.81.22,1.67,1.67,0,0,0,1.42-.82,1.62,1.62,0,0,0-.6-2.22"/><path class="cls-1" d="M119.73,35.85l-9.89-5.72A1.63,1.63,0,1,0,108.21,33l9.89,5.72a1.59,1.59,0,0,0,.81.22,1.63,1.63,0,0,0,.82-3"/><path class="cls-1" d="M109,9a1.63,1.63,0,0,0,.82-.22L119.74,3A1.63,1.63,0,1,0,118.1.22l-9.89,5.72A1.63,1.63,0,0,0,109,9"/><path class="cls-1" d="M135.39,30.13l-9.89,5.72a1.63,1.63,0,0,0,.81,3,1.57,1.57,0,0,0,.81-.22L137,33a1.63,1.63,0,1,0-1.63-2.82"/><path class="cls-1" d="M122.61,2.13A1.63,1.63,0,0,0,121,3.76V15.18a1.63,1.63,0,1,0,3.26,0V3.76a1.62,1.62,0,0,0-1.63-1.63"/><path class="cls-1" d="M122.61,22.07A1.63,1.63,0,0,0,121,23.7V35.13a1.63,1.63,0,1,0,3.26,0V23.7a1.62,1.62,0,0,0-1.63-1.63"/><path class="cls-1" d="M126.3,19a1.57,1.57,0,0,0,.81-.22L137,13a1.63,1.63,0,1,0-1.63-2.82l-9.9,5.71a1.63,1.63,0,0,0,.81,3"/><path class="cls-1" d="M118.11,20.16l-9.9,5.71a1.63,1.63,0,1,0,1.63,2.82l9.9-5.71a1.63,1.63,0,0,0-1.63-2.82"/><path class="cls-1" d="M119.74,15.91l-9.9-5.71A1.63,1.63,0,1,0,108.21,13l9.9,5.71a1.63,1.63,0,0,0,1.63-2.82"/><path class="cls-1" d="M125.49,23l9.9,5.71a1.62,1.62,0,0,0,.81.22,1.67,1.67,0,0,0,1.42-.82,1.62,1.62,0,0,0-.6-2.22l-9.91-5.71A1.63,1.63,0,0,0,125.49,23"/><path class="cls-1" d="M23.3,41.61a2,2,0,0,0-2,2V60c0,4.38-2.47,7.74-6,8.19a2,2,0,0,0,.25,4.06l.26,0c5.54-.7,9.56-5.84,9.56-12.23V43.65a2,2,0,0,0-2-2"/><path class="cls-1" d="M97.34,73.31c-8,0-14.9-5.77-15.83-13.13a2,2,0,0,1,1.77-2.27l.26,0a2,2,0,0,1,2,1.79c.67,5.35,5.85,9.55,11.79,9.55A12.08,12.08,0,0,0,106.49,65a2,2,0,1,1,3.09,2.66,16.17,16.17,0,0,1-12.24,5.61"/><path class="cls-1" d="M76.76,68.54h-13a2.06,2.06,0,0,0,0,4.11h13a2.06,2.06,0,1,0,0-4.11"/><path class="cls-1" d="M73.49,54.73H63.72a2,2,0,0,0,0,4.1h9.77a2.05,2.05,0,1,0,0-4.1"/><path class="cls-1" d="M7.9,93a3.64,3.64,0,0,1-.27,1.43,3.19,3.19,0,0,1-.74,1.08,3.29,3.29,0,0,1-1.12.69,4,4,0,0,1-1.4.24A4,4,0,0,1,3,96.19a3.2,3.2,0,0,1-1.12-.69,3.08,3.08,0,0,1-.75-1.08A3.64,3.64,0,0,1,.83,93V87.43H2.4v5.51a2.32,2.32,0,0,0,.1.67,1.67,1.67,0,0,0,.33.65,1.72,1.72,0,0,0,.6.49,2.07,2.07,0,0,0,.94.2,2.07,2.07,0,0,0,.94-.2,1.72,1.72,0,0,0,.6-.49,1.67,1.67,0,0,0,.33-.65,2.32,2.32,0,0,0,.1-.67V87.43H7.9Z"/><path class="cls-1" d="M9.69,90.26H11.1v.95h0a2.12,2.12,0,0,1,.64-.77A1.92,1.92,0,0,1,13,90.11a2.19,2.19,0,0,1,1,.2,1.79,1.79,0,0,1,.68.52,1.91,1.91,0,0,1,.37.74,3.66,3.66,0,0,1,.11.88v3.76H13.63v-3a5.34,5.34,0,0,0,0-.55,2,2,0,0,0-.13-.57,1.06,1.06,0,0,0-.33-.45.94.94,0,0,0-.61-.18,1.43,1.43,0,0,0-.62.12,1.28,1.28,0,0,0-.42.34,1.23,1.23,0,0,0-.25.48,2.12,2.12,0,0,0-.07.57v3.25H9.69Z"/><path class="cls-1" d="M16.62,88.24a.86.86,0,0,1,.27-.63.91.91,0,0,1,.68-.27,1,1,0,0,1,.68.26.81.81,0,0,1,.28.64.83.83,0,0,1-.28.64,1,1,0,0,1-.68.25.91.91,0,0,1-.68-.27.84.84,0,0,1-.27-.62m.21,2h1.49v5.95H16.83Z"/><polygon class="cls-1" points="19.23 90.26 20.85 90.26 22.44 94.42 22.46 94.42 24.07 90.26 25.59 90.26 23.25 96.21 21.66 96.21 19.23 90.26"/><path class="cls-1" d="M27.66,93.76a1.52,1.52,0,0,0,.52,1,1.63,1.63,0,0,0,1.08.37,1.82,1.82,0,0,0,.94-.23,2.6,2.6,0,0,0,.66-.58l1.07.81a3.14,3.14,0,0,1-1.17.92,3.46,3.46,0,0,1-1.35.27,3.57,3.57,0,0,1-1.27-.22,3,3,0,0,1-1-.64,3.13,3.13,0,0,1-.68-1,3.2,3.2,0,0,1-.26-1.29A3.15,3.15,0,0,1,26.43,92a3.29,3.29,0,0,1,.68-1,3.17,3.17,0,0,1,1-.63,3.57,3.57,0,0,1,1.27-.22,2.86,2.86,0,0,1,1.14.22,2.47,2.47,0,0,1,.88.62A3.09,3.09,0,0,1,32,92a4.52,4.52,0,0,1,.2,1.39v.41Zm3.05-1.12a1.41,1.41,0,0,0-.41-1,1.53,1.53,0,0,0-1.1-.37,1.42,1.42,0,0,0-1.06.38,1.74,1.74,0,0,0-.48,1Z"/><path class="cls-1" d="M33.59,90.26h1.49v.94h0a1.93,1.93,0,0,1,.71-.81,2,2,0,0,1,1-.28l.27,0,.27.07v1.44L37,91.55l-.35,0a1.68,1.68,0,0,0-.84.19,1.59,1.59,0,0,0-.48.44,1.48,1.48,0,0,0-.23.5,2.54,2.54,0,0,0-.05.37v3.19H33.59Z"/><path class="cls-1" d="M42.77,94.45a1.62,1.62,0,0,1-.22.88,1.59,1.59,0,0,1-.57.58,2.64,2.64,0,0,1-.79.33,4.53,4.53,0,0,1-.89.12h-.15a3.82,3.82,0,0,1-.61,0,3,3,0,0,1-.54-.11,3.47,3.47,0,0,1-.5-.2A3.86,3.86,0,0,1,38,95.7l.62-1a4,4,0,0,0,.79.41,2.59,2.59,0,0,0,.93.15,1.84,1.84,0,0,0,.33,0,1,1,0,0,0,.32-.13.83.83,0,0,0,.24-.21.54.54,0,0,0,.09-.31A.5.5,0,0,0,41,94.1a1.91,1.91,0,0,0-.59-.24c-.24-.06-.5-.12-.78-.17a3.33,3.33,0,0,1-.77-.26,1.64,1.64,0,0,1-.6-.51,1.52,1.52,0,0,1-.23-.89,1.74,1.74,0,0,1,.19-.84,1.85,1.85,0,0,1,.51-.6,2.4,2.4,0,0,1,.74-.35,3.58,3.58,0,0,1,.86-.13h.13a4.3,4.3,0,0,1,1.09.17,3.36,3.36,0,0,1,.94.45l-.59,1-.38-.17a3,3,0,0,0-.36-.13,2.23,2.23,0,0,0-.39-.09,2.13,2.13,0,0,0-.46,0,1.31,1.31,0,0,0-.54.17.49.49,0,0,0-.26.46.42.42,0,0,0,.24.4,3,3,0,0,0,.6.21l.77.18a3.28,3.28,0,0,1,.78.28,1.76,1.76,0,0,1,.59.53,1.57,1.57,0,0,1,.24.92"/><path class="cls-1" d="M43.73,88.24a.86.86,0,0,1,.27-.63.91.91,0,0,1,.68-.27,1,1,0,0,1,.69.26.85.85,0,0,1,.28.64.86.86,0,0,1-.28.64,1,1,0,0,1-.69.25.91.91,0,0,1-.68-.27.84.84,0,0,1-.27-.62m.21,2h1.49v5.95H43.94Z"/><path class="cls-1" d="M51.86,95.32h0a1.87,1.87,0,0,1-.86.79,2.78,2.78,0,0,1-1.18.25,3,3,0,0,1-1.24-.24,2.66,2.66,0,0,1-.92-.67,2.73,2.73,0,0,1-.58-1,3.76,3.76,0,0,1,0-2.45,3,3,0,0,1,.59-1,2.54,2.54,0,0,1,.91-.67,3,3,0,0,1,1.91-.15,2.41,2.41,0,0,1,.57.22,2.81,2.81,0,0,1,.42.29,2.06,2.06,0,0,1,.29.31h0V87.43h1.49v8.78H51.86Zm-3.52-2.09a2.09,2.09,0,0,0,.11.67,1.8,1.8,0,0,0,.35.58,1.83,1.83,0,0,0,.55.39,1.88,1.88,0,0,0,1.47,0,1.83,1.83,0,0,0,.55-.39,1.62,1.62,0,0,0,.34-.58,1.66,1.66,0,0,0,.12-.67,1.73,1.73,0,0,0-.12-.67,1.66,1.66,0,0,0-.34-.57,1.83,1.83,0,0,0-.55-.39,1.88,1.88,0,0,0-1.47,0,1.83,1.83,0,0,0-.55.39,1.87,1.87,0,0,0-.35.57,2.19,2.19,0,0,0-.11.67"/><path class="cls-1" d="M59.62,95.32h0a2,2,0,0,1-.87.79,2.75,2.75,0,0,1-1.18.25,3,3,0,0,1-1.23-.24,2.7,2.7,0,0,1-.93-.67,2.88,2.88,0,0,1-.58-1,3.78,3.78,0,0,1-.2-1.23A3.51,3.51,0,0,1,54.82,92a3,3,0,0,1,.59-1,2.63,2.63,0,0,1,.91-.67,2.85,2.85,0,0,1,1.17-.24,2.73,2.73,0,0,1,.74.09,2.12,2.12,0,0,1,.57.22,2.47,2.47,0,0,1,.43.29,2,2,0,0,1,.28.31h0v-.91H61v6.1H59.62ZM56.1,93.23a1.85,1.85,0,0,0,.12.67,1.64,1.64,0,0,0,.35.58,1.81,1.81,0,0,0,2,.39,1.83,1.83,0,0,0,.55-.39,1.64,1.64,0,0,0,.35-.58,1.85,1.85,0,0,0,.12-.67,1.93,1.93,0,0,0-.12-.67,1.69,1.69,0,0,0-.35-.57,1.83,1.83,0,0,0-.55-.39,1.73,1.73,0,0,0-2.36,1,1.93,1.93,0,0,0-.12.67"/><path class="cls-1" d="M67.34,95.32h0a1.85,1.85,0,0,1-.87.79,2.7,2.7,0,0,1-1.17.25A3,3,0,0,1,64,96.12a2.57,2.57,0,0,1-.92-.67,2.9,2.9,0,0,1-.59-1,3.78,3.78,0,0,1-.19-1.23A3.51,3.51,0,0,1,62.54,92a2.81,2.81,0,0,1,.59-1,2.54,2.54,0,0,1,.91-.67,2.77,2.77,0,0,1,1.16-.24,2.86,2.86,0,0,1,.75.09,2.41,2.41,0,0,1,.57.22,2.81,2.81,0,0,1,.42.29,2.06,2.06,0,0,1,.29.31h0V87.43h1.49v8.78H67.34Zm-3.53-2.09a1.85,1.85,0,0,0,.12.67,1.8,1.8,0,0,0,.35.58,1.83,1.83,0,0,0,.55.39,1.73,1.73,0,0,0,.73.15,1.67,1.67,0,0,0,.73-.15,1.87,1.87,0,0,0,.56-.39,1.62,1.62,0,0,0,.34-.58,1.85,1.85,0,0,0,.12-.67,1.93,1.93,0,0,0-.12-.67,1.66,1.66,0,0,0-.34-.57,1.87,1.87,0,0,0-.56-.39,1.67,1.67,0,0,0-.73-.15,1.73,1.73,0,0,0-.73.15,1.83,1.83,0,0,0-.55.39,1.87,1.87,0,0,0-.35.57,1.93,1.93,0,0,0-.12.67"/><polygon class="cls-1" points="76.04 88.84 73.35 88.84 73.35 87.43 80.3 87.43 80.3 88.84 77.61 88.84 77.61 96.21 76.04 96.21 76.04 88.84"/><path class="cls-1" d="M81,93.76a1.52,1.52,0,0,0,.52,1,1.63,1.63,0,0,0,1.08.37,1.82,1.82,0,0,0,.94-.23,2.6,2.6,0,0,0,.66-.58l1.07.81a3.14,3.14,0,0,1-1.17.92,3.61,3.61,0,0,1-2.61,0,2.85,2.85,0,0,1-1-.64,3,3,0,0,1-.69-1,3.2,3.2,0,0,1-.26-1.29,3.1,3.1,0,0,1,1-2.27,3,3,0,0,1,1-.63,3.48,3.48,0,0,1,1.26-.22,2.86,2.86,0,0,1,1.14.22,2.47,2.47,0,0,1,.88.62,3.09,3.09,0,0,1,.57,1,4.52,4.52,0,0,1,.2,1.39v.41Zm3-1.12a1.41,1.41,0,0,0-.41-1,1.53,1.53,0,0,0-1.1-.37,1.42,1.42,0,0,0-1.06.38,1.74,1.74,0,0,0-.48,1Z"/><path class="cls-1" d="M91,92a2.66,2.66,0,0,0-.55-.43,1.13,1.13,0,0,0-.58-.16,1.7,1.7,0,0,0-.73.15,1.59,1.59,0,0,0-.55.4,1.56,1.56,0,0,0-.35.56,1.93,1.93,0,0,0-.12.67,1.85,1.85,0,0,0,.12.67,1.52,1.52,0,0,0,.35.57,1.59,1.59,0,0,0,.55.4,1.7,1.7,0,0,0,.73.15,1.5,1.5,0,0,0,.64-.14,1.48,1.48,0,0,0,.51-.42l1,1.07a2.48,2.48,0,0,1-.52.38,2.79,2.79,0,0,1-.59.26,3.45,3.45,0,0,1-.57.15,4.7,4.7,0,0,1-.47,0,3.57,3.57,0,0,1-1.27-.22,3.1,3.1,0,0,1,0-5.81,3.57,3.57,0,0,1,1.27-.22,3.17,3.17,0,0,1,1.15.22,2.62,2.62,0,0,1,1,.68Z"/><path class="cls-1" d="M93,90.26h1.41v.95h0a2.12,2.12,0,0,1,.64-.77,1.9,1.9,0,0,1,1.18-.33,2.19,2.19,0,0,1,1,.2,1.87,1.87,0,0,1,.68.52,2.06,2.06,0,0,1,.37.74,3.66,3.66,0,0,1,.11.88v3.76H96.89v-3c0-.17,0-.35,0-.55a2,2,0,0,0-.13-.57,1.06,1.06,0,0,0-.33-.45.94.94,0,0,0-.61-.18,1.48,1.48,0,0,0-.63.12,1.28,1.28,0,0,0-.42.34,1.35,1.35,0,0,0-.24.48,2.12,2.12,0,0,0-.07.57v3.25H93Z"/><path class="cls-1" d="M99.77,93.23a3,3,0,0,1,.94-2.27,3.07,3.07,0,0,1,1-.63,3.57,3.57,0,0,1,1.27-.22,3.52,3.52,0,0,1,1.26.22,3.07,3.07,0,0,1,1,.63,3.29,3.29,0,0,1,.69,3.56,3,3,0,0,1-.69,1,2.94,2.94,0,0,1-1,.64,3.52,3.52,0,0,1-1.26.22,3.57,3.57,0,0,1-1.27-.22,2.94,2.94,0,0,1-1-.64,3,3,0,0,1-.69-1,3.16,3.16,0,0,1-.25-1.29m1.49,0a1.85,1.85,0,0,0,.12.67,1.62,1.62,0,0,0,.34.58,2,2,0,0,0,.55.39,1.88,1.88,0,0,0,1.47,0,1.83,1.83,0,0,0,.55-.39,1.8,1.8,0,0,0,.35-.58,1.85,1.85,0,0,0,.12-.67,1.93,1.93,0,0,0-.12-.67,1.87,1.87,0,0,0-.35-.57,1.83,1.83,0,0,0-.55-.39,1.88,1.88,0,0,0-1.47,0,2,2,0,0,0-.55.39,1.66,1.66,0,0,0-.34.57,1.93,1.93,0,0,0-.12.67"/><rect class="cls-1" x="107.66" y="87.43" width="1.49" height="8.78"/><path class="cls-1" d="M110.56,93.23a3.14,3.14,0,0,1,.25-1.28,3,3,0,0,1,.69-1,3,3,0,0,1,1-.64,3.57,3.57,0,0,1,1.27-.22,3.52,3.52,0,0,1,1.26.22,2.94,2.94,0,0,1,1,.64,3,3,0,0,1,.69,1,3.14,3.14,0,0,1,.25,1.28,3.19,3.19,0,0,1-.25,1.29,3,3,0,0,1-.69,1,2.94,2.94,0,0,1-1,.64,3.52,3.52,0,0,1-1.26.22,3.57,3.57,0,0,1-1.27-.22,3,3,0,0,1-1-.64,3,3,0,0,1-.69-1,3.19,3.19,0,0,1-.25-1.29m1.49,0a2.09,2.09,0,0,0,.11.67,1.65,1.65,0,0,0,.35.57,1.74,1.74,0,0,0,.56.4,1.67,1.67,0,0,0,.73.15,1.73,1.73,0,0,0,.73-.15,1.69,1.69,0,0,0,.55-.4,1.65,1.65,0,0,0,.35-.57,1.85,1.85,0,0,0,.12-.67,1.93,1.93,0,0,0-.12-.67,1.87,1.87,0,0,0-.35-.57,1.83,1.83,0,0,0-.55-.39,1.73,1.73,0,0,0-.73-.15,1.67,1.67,0,0,0-.73.15,1.65,1.65,0,0,0-.91,1,2.19,2.19,0,0,0-.11.67m2.39-5.8h1.69l-1.75,1.79h-1.17Z"/><path class="cls-1" d="M124.55,90.26v5.42a5,5,0,0,1-.2,1.45,2.85,2.85,0,0,1-.61,1.11,2.89,2.89,0,0,1-1,.7,4.2,4.2,0,0,1-1.5.25,5.85,5.85,0,0,1-1.58-.21,3.55,3.55,0,0,1-1.37-.77l.89-1.22a3.87,3.87,0,0,0,.93.64,2.8,2.8,0,0,0,1.12.22,2.42,2.42,0,0,0,.9-.15,1.43,1.43,0,0,0,.89-1,3.35,3.35,0,0,0,.09-.81v-.43h0a2,2,0,0,1-.86.65,3,3,0,0,1-1.09.22,3,3,0,0,1-1.22-.25,2.94,2.94,0,0,1-.93-.65,2.79,2.79,0,0,1-.6-1,3.19,3.19,0,0,1-.21-1.2,3.76,3.76,0,0,1,.19-1.22,2.79,2.79,0,0,1,.59-1,2.67,2.67,0,0,1,.92-.66,3,3,0,0,1,1.24-.24,2.73,2.73,0,0,1,1.17.25,1.9,1.9,0,0,1,.87.79h0v-.89Zm-3.18,1.19a1.8,1.8,0,0,0-.71.13,1.57,1.57,0,0,0-.92.92,2.09,2.09,0,0,0-.13.72,1.82,1.82,0,0,0,.13.67,1.72,1.72,0,0,0,.37.55,1.82,1.82,0,0,0,.56.37,1.74,1.74,0,0,0,.69.14,2,2,0,0,0,.74-.14,1.66,1.66,0,0,0,.56-.37,1.48,1.48,0,0,0,.35-.55,2,2,0,0,0,.13-.69,1.65,1.65,0,0,0-1.77-1.75"/><path class="cls-1" d="M126.05,88.24a.86.86,0,0,1,.27-.63.89.89,0,0,1,.67-.27,1,1,0,0,1,.69.26.81.81,0,0,1,.28.64.83.83,0,0,1-.28.64,1,1,0,0,1-.69.25.89.89,0,0,1-.67-.27.84.84,0,0,1-.27-.62m.21,2h1.49v5.95h-1.49Z"/><path class="cls-1" d="M133.53,92a2.66,2.66,0,0,0-.55-.43,1.13,1.13,0,0,0-.58-.16,1.7,1.7,0,0,0-.73.15,1.59,1.59,0,0,0-.55.4,1.56,1.56,0,0,0-.35.56,1.93,1.93,0,0,0-.12.67,1.85,1.85,0,0,0,.12.67,1.52,1.52,0,0,0,.35.57,1.59,1.59,0,0,0,.55.4,1.7,1.7,0,0,0,.73.15,1.5,1.5,0,0,0,.64-.14,1.61,1.61,0,0,0,.52-.42l1,1.07a2.19,2.19,0,0,1-.51.38,2.79,2.79,0,0,1-.59.26,3.45,3.45,0,0,1-.57.15,4.7,4.7,0,0,1-.47,0,3.57,3.57,0,0,1-1.27-.22,3,3,0,0,1-1-.64,2.85,2.85,0,0,1-.69-1,3.16,3.16,0,0,1-.26-1.29,3.11,3.11,0,0,1,.26-1.28,2.85,2.85,0,0,1,.69-1,3,3,0,0,1,1-.64,3.57,3.57,0,0,1,1.27-.22,3.17,3.17,0,0,1,1.15.22,2.62,2.62,0,0,1,1,.68Z"/><path class="cls-1" d="M140.1,95.32h0a2,2,0,0,1-.87.79,2.75,2.75,0,0,1-1.18.25,3,3,0,0,1-1.23-.24,2.7,2.7,0,0,1-.93-.67,2.88,2.88,0,0,1-.58-1,3.78,3.78,0,0,1-.2-1.23A3.51,3.51,0,0,1,135.3,92a3,3,0,0,1,.59-1,2.63,2.63,0,0,1,.91-.67,2.85,2.85,0,0,1,1.17-.24,2.73,2.73,0,0,1,.74.09,2.12,2.12,0,0,1,.57.22,2.05,2.05,0,0,1,.42.29A1.65,1.65,0,0,1,140,91h0v-.91h1.49v6.1H140.1Zm-3.52-2.09a1.85,1.85,0,0,0,.12.67,1.64,1.64,0,0,0,.35.58,1.77,1.77,0,0,0,2.56,0,1.8,1.8,0,0,0,.35-.58,1.85,1.85,0,0,0,.12-.67,1.93,1.93,0,0,0-.12-.67,1.87,1.87,0,0,0-.35-.57,1.77,1.77,0,0,0-2.56,0,1.69,1.69,0,0,0-.35.57,1.93,1.93,0,0,0-.12.67"/></g></g></svg>