<svg xmlns="http://www.w3.org/2000/svg" viewBox="0 0 72.89 25.05"><defs><style>.cls-1{fill:#333;}</style></defs><title>logo-edu-violet</title><g id="Layer_2" data-name="Layer 2"><g id="Layer_1-2" data-name="Layer 1"><path class="cls-1" d="M1.6,25.05A1.58,1.58,0,0,1,.46,24.6,1.48,1.48,0,0,1,0,23.49V1.56A1.48,1.48,0,0,1,.46.45,1.58,1.58,0,0,1,1.6,0,1.58,1.58,0,0,1,2.74.45,1.48,1.48,0,0,1,3.2,1.56V23.49a1.48,1.48,0,0,1-.46,1.11A1.58,1.58,0,0,1,1.6,25.05Z"/><path class="cls-1" d="M17.11,3.12h-11A1.58,1.58,0,0,1,5,2.67a1.48,1.48,0,0,1-.46-1.11A1.48,1.48,0,0,1,5,.45,1.58,1.58,0,0,1,6.12,0h11a1.58,1.58,0,0,1,1.14.45,1.48,1.48,0,0,1,.46,1.11,1.48,1.48,0,0,1-.46,1.11A1.58,1.58,0,0,1,17.11,3.12Z"/><path class="cls-1" d="M15.94,13.76H6.12A1.55,1.55,0,0,1,5,13.29a1.5,1.5,0,0,1-.46-1.09A1.48,1.48,0,0,1,5,11.09a1.58,1.58,0,0,1,1.14-.45h9.82a1.58,1.58,0,0,1,1.14.45,1.52,1.52,0,0,1,.46,1.11,1.54,1.54,0,0,1-.46,1.09A1.55,1.55,0,0,1,15.94,13.76Z"/><path class="cls-1" d="M17.11,25.05h-11A1.58,1.58,0,0,1,5,24.6a1.48,1.48,0,0,1-.46-1.11A1.5,1.5,0,0,1,5,22.4a1.55,1.55,0,0,1,1.14-.46h11a1.55,1.55,0,0,1,1.14.46,1.5,1.5,0,0,1,.46,1.09,1.48,1.48,0,0,1-.46,1.11A1.58,1.58,0,0,1,17.11,25.05Z"/><path class="cls-1" d="M25.61,25.05a1.54,1.54,0,0,1-1.13-.45A1.49,1.49,0,0,1,24,23.49V1.56A1.49,1.49,0,0,1,24.48.45,1.54,1.54,0,0,1,25.61,0a1.58,1.58,0,0,1,1.14.45,1.48,1.48,0,0,1,.46,1.11V23.49a1.48,1.48,0,0,1-.46,1.11A1.58,1.58,0,0,1,25.61,25.05Z"/><path class="cls-1" d="M33.69,25.05H30.13A1.58,1.58,0,0,1,29,24.6a1.52,1.52,0,0,1-.46-1.11,1.57,1.57,0,0,1,1.6-1.55h3.56a11,11,0,0,0,3.38-.54,9.17,9.17,0,0,0,3-1.65A8.26,8.26,0,0,0,42.28,17a9.11,9.11,0,0,0,.84-4.06,10.05,10.05,0,0,0-.82-4.11A9.67,9.67,0,0,0,40.15,5.7a9.5,9.5,0,0,0-6.46-2.58H30.13A1.58,1.58,0,0,1,29,2.67a1.52,1.52,0,0,1-.46-1.11A1.52,1.52,0,0,1,29,.45,1.58,1.58,0,0,1,30.13,0h3.56a12.55,12.55,0,0,1,4.8.94,13.35,13.35,0,0,1,2.15,1.14A11.4,11.4,0,0,1,42.51,3.6a12.22,12.22,0,0,1,2.83,4.2,13.34,13.34,0,0,1,1,5.09A12.17,12.17,0,0,1,45.25,18a10.85,10.85,0,0,1-2.81,3.85,12.06,12.06,0,0,1-4,2.37A14,14,0,0,1,33.69,25.05Z"/><path class="cls-1" d="M60.23,21.59a1.54,1.54,0,0,1,1.12.61,1.7,1.7,0,0,1,.34,1.23,1.55,1.55,0,0,1-.55,1,1.66,1.66,0,0,1-1.12.42.61.61,0,0,1-.22,0,8.39,8.39,0,0,1-3.22-1.06A9.13,9.13,0,0,1,54,21.62a10,10,0,0,1-1.67-3,10.72,10.72,0,0,1-.61-3.65V1.66a1.57,1.57,0,0,1,.5-1.17A1.65,1.65,0,0,1,53.47,0a1.59,1.59,0,0,1,1.19.49,1.59,1.59,0,0,1,.48,1.17V14.94a7.92,7.92,0,0,0,.38,2.46,6.55,6.55,0,0,0,1,2,5.79,5.79,0,0,0,1.62,1.46A5.12,5.12,0,0,0,60.23,21.59Z"/><path class="cls-1" d="M71.19,0A1.67,1.67,0,0,1,72.4.49a1.56,1.56,0,0,1,.49,1.17V14.94a11.21,11.21,0,0,1-.58,3.65,9.77,9.77,0,0,1-1.66,3,9.19,9.19,0,0,1-2.52,2.17,8.24,8.24,0,0,1-3.2,1.06.61.61,0,0,1-.22,0,1.73,1.73,0,0,1-1.14-.42,1.54,1.54,0,0,1-.57-1,1.63,1.63,0,0,1,.36-1.23,1.58,1.58,0,0,1,1.14-.61,5.16,5.16,0,0,0,2-.69,5.55,5.55,0,0,0,1.58-1.44,6.44,6.44,0,0,0,1-2.05,8.29,8.29,0,0,0,.36-2.47V1.66A1.54,1.54,0,0,1,70,.49,1.64,1.64,0,0,1,71.19,0Z"/></g></g></svg>