<svg xmlns="http://www.w3.org/2000/svg" viewBox="0 0 128 128"><defs><style>.cls-1{fill:#6ab3bb;}.cls-2{fill:#fff;}</style></defs><title>program-icon</title><g id="Layer_2" data-name="Layer 2"><g id="Layer_1-2" data-name="Layer 1"><circle class="cls-1" cx="64" cy="64" r="64"/><path class="cls-2" d="M94.69,71.71a9.92,9.92,0,0,1-2.29,1.71l-4.22,2.34a1,1,0,0,1-.49.13,1,1,0,0,1-.89-.52A1,1,0,0,1,87,74.15a1.28,1.28,0,0,1,.22-.17l4.23-2.33a8.3,8.3,0,0,0,1.83-1.38,8.07,8.07,0,0,0-1.58-12.59L73.58,46.79a1,1,0,0,1-.35-1.39,1,1,0,0,1,.87-.5.93.93,0,0,1,.52.15l18.1,10.89a10.11,10.11,0,0,1,2,15.77Z"/><path class="cls-2" d="M46.52,66.52a1,1,0,0,1-1.45,0,1,1,0,0,1-.28-.72L45.16,45a10,10,0,0,1,5.21-8.65,10,10,0,0,1,10.1.18l3,1.82A1.05,1.05,0,0,1,64,39a1,1,0,0,1-.12.77.7.7,0,0,1-.15.19,1,1,0,0,1-1.24.15l-3-1.82a8,8,0,0,0-8.07-.14,8.18,8.18,0,0,0-1.83,1.37A8,8,0,0,0,47.19,45l-.37,20.78A1,1,0,0,1,46.52,66.52Z"/><path class="cls-2" d="M78.07,81.31a1.3,1.3,0,0,1-.23.18L59.47,91.65a10.1,10.1,0,0,1-15-9l.05-2.46a1,1,0,0,1,1-1,1,1,0,0,1,.74.31,1,1,0,0,1,.28.72l-.05,2.46a8.08,8.08,0,0,0,8.07,8.22,8.09,8.09,0,0,0,3.91-1L76.86,79.71a.92.92,0,0,1,.49-.13,1,1,0,0,1,.89.52,1,1,0,0,1,.08.78A.94.94,0,0,1,78.07,81.31Z"/><path class="cls-2" d="M70,76.73A14.79,14.79,0,0,1,44.77,66.27a1,1,0,0,1,1-1,1,1,0,0,1,1,1,12.75,12.75,0,0,0,21.77,9,12.63,12.63,0,0,0,3.74-9,1,1,0,0,1,.3-.71,1,1,0,0,1,1.44,0,1,1,0,0,1,.3.71A14.69,14.69,0,0,1,70,76.73Z"/><path class="cls-2" d="M62.54,71.41a1,1,0,0,1-.72.29.92.92,0,0,1-.46-.11A14.79,14.79,0,0,1,75,45.34a1,1,0,0,1,.44,1.37.92.92,0,0,1-.19.25,1,1,0,0,1-.72.3.93.93,0,0,1-.46-.12,12.8,12.8,0,0,0-14.9,2.29,13.25,13.25,0,0,0-2.31,3.15,12.77,12.77,0,0,0,5.44,17.21,1,1,0,0,1,.5.59,1,1,0,0,1-.06.78A1.1,1.1,0,0,1,62.54,71.41Z"/><path class="cls-2" d="M80.26,79.49A14.58,14.58,0,0,1,76.92,82a1,1,0,0,1-.49.13,1,1,0,0,1-.89-.53,1,1,0,0,1,.17-1.21,1.37,1.37,0,0,1,.23-.17A12.76,12.76,0,0,0,63.66,57.84a.92.92,0,0,1-.49.13,1,1,0,0,1-.89-.53,1,1,0,0,1-.08-.77.93.93,0,0,1,.25-.43,1.3,1.3,0,0,1,.23-.18A14.79,14.79,0,0,1,80.26,79.49Z"/></g></g></svg>